<svg width="36" height="36" viewBox="0 0 36 36" fill="none" xmlns="http://www.w3.org/2000/svg">
  <g transform="translate(4,3)">
    <path fill-rule="evenodd" clip-rule="evenodd" 
      d="M27.4351 1.98021C27.8257 1.58968 27.8257 0.956517 27.4351 0.565993C27.0446 0.175469 26.4114 0.175469 26.0209 0.565993L14 12.5869L1.97908 0.565993C1.58856 0.175469 0.95539 0.175469 0.564866 0.565993C0.174342 0.956517 0.174342 1.58968 0.564866 1.98021L12.5858 14.0011L0.565079 26.0218C0.174555 26.4124 0.174555 27.0455 0.565079 27.436C0.955603 27.8266 1.58877 27.8266 1.97929 27.436L14 15.4153L26.0207 27.4361C26.4112 27.8266 27.0444 27.8266 27.4349 27.436C27.8254 27.0455 27.8254 26.4124 27.4349 26.0218L15.4142 14.0011L27.4351 1.98021Z" 
      fill="#C5358C"/>
  </g>
</svg>