<svg width="135" height="23" viewBox="0 0 135 23" fill="none" xmlns="http://www.w3.org/2000/svg">
<path d="M34.7578 6.15039H38.3965C40.002 6.15039 41.209 6.39062 42.0176 6.87109C42.8262 7.35156 43.2305 8.16895 43.2305 9.32324C43.2305 9.82129 43.1338 10.2695 42.9404 10.668C42.7529 11.0605 42.4775 11.3857 42.1143 11.6436C41.751 11.9014 41.3027 12.0801 40.7695 12.1797V12.2676C41.332 12.3555 41.8301 12.5166 42.2637 12.751C42.6973 12.9854 43.0371 13.3135 43.2832 13.7354C43.5293 14.1572 43.6523 14.6934 43.6523 15.3438C43.6523 16.1348 43.4678 16.8027 43.0986 17.3477C42.7354 17.8926 42.2197 18.3057 41.5518 18.5869C40.8838 18.8623 40.0928 19 39.1787 19H34.7578V6.15039ZM36.252 11.6611H38.7129C39.832 11.6611 40.6055 11.4766 41.0332 11.1074C41.4668 10.7383 41.6836 10.1992 41.6836 9.49023C41.6836 8.75781 41.4258 8.23047 40.9102 7.9082C40.4004 7.58594 39.5859 7.4248 38.4668 7.4248H36.252V11.6611ZM36.252 12.918V17.7256H38.9238C40.0664 17.7256 40.875 17.5029 41.3496 17.0576C41.8242 16.6064 42.0615 16 42.0615 15.2383C42.0615 14.752 41.9531 14.3359 41.7363 13.9902C41.5254 13.6445 41.1797 13.3809 40.6992 13.1992C40.2246 13.0117 39.5889 12.918 38.792 12.918H36.252ZM52.3184 9.36719V13.4102H57.6885V9.36719H59.1475V19H57.6885V14.6494H52.3184V19H50.8506V9.36719H52.3184ZM65.8447 9.20898C66.9932 9.20898 67.8457 9.4668 68.4023 9.98242C68.959 10.498 69.2373 11.3213 69.2373 12.4521V19H68.1738L67.8926 17.5762H67.8223C67.5527 17.9277 67.2715 18.2236 66.9785 18.4639C66.6855 18.6982 66.3457 18.877 65.959 19C65.5781 19.1172 65.1094 19.1758 64.5527 19.1758C63.9668 19.1758 63.4453 19.0732 62.9883 18.8682C62.5371 18.6631 62.1797 18.3525 61.916 17.9365C61.6582 17.5205 61.5293 16.9932 61.5293 16.3545C61.5293 15.3936 61.9102 14.6553 62.6719 14.1396C63.4336 13.624 64.5938 13.3428 66.1523 13.2959L67.8135 13.2256V12.6367C67.8135 11.8047 67.6348 11.2217 67.2773 10.8877C66.9199 10.5537 66.416 10.3867 65.7656 10.3867C65.2617 10.3867 64.7812 10.46 64.3242 10.6064C63.8672 10.7529 63.4336 10.9258 63.0234 11.125L62.5752 10.0176C63.0088 9.79492 63.5068 9.60449 64.0693 9.44629C64.6318 9.28809 65.2236 9.20898 65.8447 9.20898ZM67.7959 14.2539L66.3281 14.3154C65.127 14.3623 64.2803 14.5586 63.7881 14.9043C63.2959 15.25 63.0498 15.7393 63.0498 16.3721C63.0498 16.9229 63.2168 17.3301 63.5508 17.5938C63.8848 17.8574 64.3271 17.9893 64.8779 17.9893C65.7334 17.9893 66.4336 17.752 66.9785 17.2773C67.5234 16.8027 67.7959 16.0908 67.7959 15.1416V14.2539ZM79.4678 19H77.9824V10.5889H75.0557C74.9385 12.1064 74.7891 13.4072 74.6074 14.4912C74.4316 15.5693 74.209 16.4512 73.9395 17.1367C73.6758 17.8164 73.3535 18.3174 72.9727 18.6396C72.5977 18.9561 72.1494 19.1143 71.6279 19.1143C71.4697 19.1143 71.3203 19.1055 71.1797 19.0879C71.0391 19.0703 70.9189 19.041 70.8193 19V17.8926C70.8955 17.916 70.9746 17.9336 71.0566 17.9453C71.1445 17.957 71.2354 17.9629 71.3291 17.9629C71.5928 17.9629 71.833 17.8545 72.0498 17.6377C72.2725 17.415 72.4717 17.0811 72.6475 16.6357C72.8291 16.1904 72.9902 15.6279 73.1309 14.9482C73.2715 14.2627 73.3945 13.457 73.5 12.5312C73.6113 11.5996 73.708 10.5449 73.79 9.36719H79.4678V19ZM83.9326 9.36719V15.4229C83.9326 15.54 83.9297 15.6924 83.9238 15.8799C83.918 16.0615 83.9092 16.2578 83.8975 16.4688C83.8857 16.6738 83.874 16.873 83.8623 17.0664C83.8564 17.2539 83.8477 17.4092 83.8359 17.5322L89.0918 9.36719H90.8848V19H89.5225V13.0938C89.5225 12.9062 89.5254 12.666 89.5312 12.373C89.5371 12.0801 89.5459 11.793 89.5576 11.5117C89.5693 11.2246 89.5781 11.002 89.584 10.8438L84.3457 19H82.5439V9.36719H83.9326ZM95.2617 9.36719V12.8301C95.2617 13.4336 95.4258 13.8789 95.7539 14.166C96.0879 14.4531 96.5713 14.5967 97.2041 14.5967C97.8135 14.5967 98.3672 14.5029 98.8652 14.3154C99.3633 14.1279 99.8672 13.873 100.377 13.5508V9.36719H101.836V19H100.377V14.6846C99.8379 15.0303 99.3076 15.3027 98.7861 15.502C98.2646 15.7012 97.6406 15.8008 96.9141 15.8008C95.9238 15.8008 95.1562 15.543 94.6113 15.0273C94.0723 14.5117 93.8027 13.8145 93.8027 12.9355V9.36719H95.2617ZM106.31 9.36719V15.4229C106.31 15.54 106.307 15.6924 106.301 15.8799C106.295 16.0615 106.286 16.2578 106.274 16.4688C106.263 16.6738 106.251 16.873 106.239 17.0664C106.233 17.2539 106.225 17.4092 106.213 17.5322L111.469 9.36719H113.262V19H111.899V13.0938C111.899 12.9062 111.902 12.666 111.908 12.373C111.914 12.0801 111.923 11.793 111.935 11.5117C111.946 11.2246 111.955 11.002 111.961 10.8438L106.723 19H104.921V9.36719H106.31ZM117.753 9.36719V15.4229C117.753 15.54 117.75 15.6924 117.744 15.8799C117.738 16.0615 117.729 16.2578 117.718 16.4688C117.706 16.6738 117.694 16.873 117.683 17.0664C117.677 17.2539 117.668 17.4092 117.656 17.5322L122.912 9.36719H124.705V19H123.343V13.0938C123.343 12.9062 123.346 12.666 123.352 12.373C123.357 12.0801 123.366 11.793 123.378 11.5117C123.39 11.2246 123.398 11.002 123.404 10.8438L118.166 19H116.364V9.36719H117.753Z" fill="#68AE5C"/>
<circle cx="6.5" cy="12.5" r="6.5" fill="#68AE5C"/>
</svg>
