<svg width="64" height="64" viewBox="0 0 64 64" fill="none" xmlns="http://www.w3.org/2000/svg">
<rect x="0.5" y="0.5" width="63" height="63" rx="2.5" stroke="#111111"/>
<g clip-path="url(#clip0_391_5716)">
<path fill-rule="evenodd" clip-rule="evenodd" d="M17.5872 33.1698L47.3382 32.8428C47.8904 32.8367 48.3332 32.3841 48.3271 31.8318C48.321 31.2796 47.8684 30.8368 47.3162 30.8429L17.4198 31.1715L28.9996 18.8193C29.3773 18.4164 29.3569 17.7836 28.954 17.4058C28.5511 17.0281 27.9182 17.0485 27.5405 17.4515L14.358 31.5133C13.9803 31.9162 14.0007 32.549 14.4037 32.9268L29.1081 46.7117C29.5111 47.0894 30.1439 47.069 30.5216 46.6661C30.8993 46.2632 30.8789 45.6303 30.476 45.2526L17.5872 33.1698Z" fill="#111111"/>
</g>
<defs>
<clipPath id="clip0_391_5716">
<rect width="30" height="30" fill="white" transform="matrix(-0.707107 -0.707107 -0.707107 0.707107 53.2131 32)"/>
</clipPath>
</defs>
</svg>
