<svg width="160" height="23" viewBox="0 0 160 23" fill="none" xmlns="http://www.w3.org/2000/svg">
<path d="M44.4961 19H43.002V12.9443H36.252V19H34.7578V6.15039H36.252V11.626H43.002V6.15039H44.4961V19ZM51.5186 9.19141C52.3389 9.19141 53.042 9.37305 53.6279 9.73633C54.2139 10.0996 54.6621 10.6094 54.9727 11.2656C55.2832 11.916 55.4385 12.6777 55.4385 13.5508V14.4561H48.7852C48.8027 15.5869 49.084 16.4482 49.6289 17.04C50.1738 17.6318 50.9414 17.9277 51.9316 17.9277C52.541 17.9277 53.0801 17.8721 53.5488 17.7607C54.0176 17.6494 54.5039 17.4854 55.0078 17.2686V18.5518C54.5215 18.7686 54.0381 18.9268 53.5576 19.0264C53.083 19.126 52.5205 19.1758 51.8701 19.1758C50.9443 19.1758 50.1357 18.9883 49.4443 18.6133C48.7588 18.2324 48.2256 17.6758 47.8447 16.9434C47.4639 16.2109 47.2734 15.3145 47.2734 14.2539C47.2734 13.2168 47.4463 12.3203 47.792 11.5645C48.1436 10.8027 48.6357 10.2168 49.2686 9.80664C49.9072 9.39648 50.6572 9.19141 51.5186 9.19141ZM51.501 10.3867C50.7217 10.3867 50.1006 10.6416 49.6377 11.1514C49.1748 11.6611 48.8994 12.373 48.8115 13.2871H53.9092C53.9033 12.7129 53.8125 12.209 53.6367 11.7754C53.4668 11.3359 53.2061 10.9961 52.8545 10.7559C52.5029 10.5098 52.0518 10.3867 51.501 10.3867ZM64.4824 10.6064H61.3096V19H59.8682V10.6064H56.7393V9.36719H64.4824V10.6064ZM78.7207 11.7842C78.7207 12.3877 78.5449 12.8594 78.1934 13.1992C77.8418 13.5332 77.3877 13.7588 76.8311 13.876V13.9463C77.4346 14.0283 77.9531 14.2451 78.3867 14.5967C78.8262 14.9424 79.0459 15.4727 79.0459 16.1875C79.0459 16.7383 78.9141 17.2246 78.6504 17.6465C78.3867 18.0684 77.9736 18.3994 77.4111 18.6396C76.8486 18.8799 76.1162 19 75.2139 19H71.0654V9.36719H75.1787C75.8701 9.36719 76.4795 9.44629 77.0068 9.60449C77.54 9.75684 77.959 10.0088 78.2637 10.3604C78.5684 10.7119 78.7207 11.1865 78.7207 11.7842ZM77.5254 16.1875C77.5254 15.6191 77.3086 15.209 76.875 14.957C76.4473 14.7051 75.8232 14.5791 75.0029 14.5791H72.5332V17.8135H75.0381C75.8467 17.8135 76.4619 17.6904 76.8838 17.4443C77.3115 17.1924 77.5254 16.7734 77.5254 16.1875ZM77.2354 11.9512C77.2354 11.4941 77.0684 11.1543 76.7344 10.9316C76.4004 10.7031 75.8525 10.5889 75.0908 10.5889H72.5332V13.3574H74.8359C75.627 13.3574 76.2246 13.2432 76.6289 13.0146C77.0332 12.7861 77.2354 12.4316 77.2354 11.9512ZM87.5449 9.36719V13.4102H92.915V9.36719H94.374V19H92.915V14.6494H87.5449V19H86.0771V9.36719H87.5449ZM101.071 9.20898C102.22 9.20898 103.072 9.4668 103.629 9.98242C104.186 10.498 104.464 11.3213 104.464 12.4521V19H103.4L103.119 17.5762H103.049C102.779 17.9277 102.498 18.2236 102.205 18.4639C101.912 18.6982 101.572 18.877 101.186 19C100.805 19.1172 100.336 19.1758 99.7793 19.1758C99.1934 19.1758 98.6719 19.0732 98.2148 18.8682C97.7637 18.6631 97.4062 18.3525 97.1426 17.9365C96.8848 17.5205 96.7559 16.9932 96.7559 16.3545C96.7559 15.3936 97.1367 14.6553 97.8984 14.1396C98.6602 13.624 99.8203 13.3428 101.379 13.2959L103.04 13.2256V12.6367C103.04 11.8047 102.861 11.2217 102.504 10.8877C102.146 10.5537 101.643 10.3867 100.992 10.3867C100.488 10.3867 100.008 10.46 99.5508 10.6064C99.0938 10.7529 98.6602 10.9258 98.25 11.125L97.8018 10.0176C98.2354 9.79492 98.7334 9.60449 99.2959 9.44629C99.8584 9.28809 100.45 9.20898 101.071 9.20898ZM103.022 14.2539L101.555 14.3154C100.354 14.3623 99.5068 14.5586 99.0146 14.9043C98.5225 15.25 98.2764 15.7393 98.2764 16.3721C98.2764 16.9229 98.4434 17.3301 98.7773 17.5938C99.1113 17.8574 99.5537 17.9893 100.104 17.9893C100.96 17.9893 101.66 17.752 102.205 17.2773C102.75 16.8027 103.022 16.0908 103.022 15.1416V14.2539ZM114.694 19H113.209V10.5889H110.282C110.165 12.1064 110.016 13.4072 109.834 14.4912C109.658 15.5693 109.436 16.4512 109.166 17.1367C108.902 17.8164 108.58 18.3174 108.199 18.6396C107.824 18.9561 107.376 19.1143 106.854 19.1143C106.696 19.1143 106.547 19.1055 106.406 19.0879C106.266 19.0703 106.146 19.041 106.046 19V17.8926C106.122 17.916 106.201 17.9336 106.283 17.9453C106.371 17.957 106.462 17.9629 106.556 17.9629C106.819 17.9629 107.06 17.8545 107.276 17.6377C107.499 17.415 107.698 17.0811 107.874 16.6357C108.056 16.1904 108.217 15.6279 108.357 14.9482C108.498 14.2627 108.621 13.457 108.727 12.5312C108.838 11.5996 108.935 10.5449 109.017 9.36719H114.694V19ZM119.159 9.36719V15.4229C119.159 15.54 119.156 15.6924 119.15 15.8799C119.145 16.0615 119.136 16.2578 119.124 16.4688C119.112 16.6738 119.101 16.873 119.089 17.0664C119.083 17.2539 119.074 17.4092 119.062 17.5322L124.318 9.36719H126.111V19H124.749V13.0938C124.749 12.9062 124.752 12.666 124.758 12.373C124.764 12.0801 124.772 11.793 124.784 11.5117C124.796 11.2246 124.805 11.002 124.811 10.8438L119.572 19H117.771V9.36719H119.159ZM130.488 9.36719V12.8301C130.488 13.4336 130.652 13.8789 130.98 14.166C131.314 14.4531 131.798 14.5967 132.431 14.5967C133.04 14.5967 133.594 14.5029 134.092 14.3154C134.59 14.1279 135.094 13.873 135.604 13.5508V9.36719H137.062V19H135.604V14.6846C135.064 15.0303 134.534 15.3027 134.013 15.502C133.491 15.7012 132.867 15.8008 132.141 15.8008C131.15 15.8008 130.383 15.543 129.838 15.0273C129.299 14.5117 129.029 13.8145 129.029 12.9355V9.36719H130.488ZM141.536 9.36719V15.4229C141.536 15.54 141.533 15.6924 141.527 15.8799C141.521 16.0615 141.513 16.2578 141.501 16.4688C141.489 16.6738 141.478 16.873 141.466 17.0664C141.46 17.2539 141.451 17.4092 141.439 17.5322L146.695 9.36719H148.488V19H147.126V13.0938C147.126 12.9062 147.129 12.666 147.135 12.373C147.141 12.0801 147.149 11.793 147.161 11.5117C147.173 11.2246 147.182 11.002 147.188 10.8438L141.949 19H140.147V9.36719H141.536ZM152.979 9.36719V15.4229C152.979 15.54 152.977 15.6924 152.971 15.8799C152.965 16.0615 152.956 16.2578 152.944 16.4688C152.933 16.6738 152.921 16.873 152.909 17.0664C152.903 17.2539 152.895 17.4092 152.883 17.5322L158.139 9.36719H159.932V19H158.569V13.0938C158.569 12.9062 158.572 12.666 158.578 12.373C158.584 12.0801 158.593 11.793 158.604 11.5117C158.616 11.2246 158.625 11.002 158.631 10.8438L153.393 19H151.591V9.36719H152.979Z" fill="#DC5B5B"/>
<circle cx="6.5" cy="12.5" r="6.5" fill="#DC5B5B"/>
</svg>
