<svg width="64" height="64" viewBox="0 0 64 64" fill="none" xmlns="http://www.w3.org/2000/svg">
<rect x="-0.5" y="0.5" width="63" height="63" rx="2.5" transform="matrix(-1 0 0 1 63 0)" stroke="#111111"/>
<g clip-path="url(#clip0_391_5717)">
<path fill-rule="evenodd" clip-rule="evenodd" d="M46.4128 33.1698L16.6618 32.8428C16.1096 32.8367 15.6668 32.3841 15.6729 31.8318C15.679 31.2796 16.1316 30.8368 16.6838 30.8429L46.5802 31.1715L35.0004 18.8193C34.6227 18.4164 34.6431 17.7836 35.046 17.4058C35.4489 17.0281 36.0818 17.0485 36.4595 17.4515L49.642 31.5133C50.0197 31.9162 49.9993 32.549 49.5963 32.9268L34.8919 46.7117C34.4889 47.0894 33.8561 47.069 33.4784 46.6661C33.1007 46.2632 33.1211 45.6303 33.524 45.2526L46.4128 33.1698Z" fill="#111111"/>
</g>
<defs>
<clipPath id="clip0_391_5717">
<rect width="30" height="30" fill="white" transform="translate(10.7869 32) rotate(-45)"/>
</clipPath>
</defs>
</svg>
