<svg width="161" height="71" viewBox="0 0 161 71" fill="none" xmlns="http://www.w3.org/2000/svg">
<path d="M8.4375 18.7578C9.85352 18.7578 11.0889 19.0068 12.1436 19.5049C13.208 19.9932 14.0332 20.7109 14.6191 21.6582C15.2148 22.6055 15.5127 23.7578 15.5127 25.1152C15.5127 26.5996 15.1953 27.8789 14.5605 28.9531C13.9258 30.0273 13.0029 30.8525 11.792 31.4287C10.5811 32.0049 9.11621 32.293 7.39746 32.293C6.28418 32.293 5.24414 32.1953 4.27734 32C3.31055 31.8047 2.49023 31.5117 1.81641 31.1211V28.4111C2.53906 28.8311 3.4082 29.1729 4.42383 29.4365C5.44922 29.6904 6.43555 29.8174 7.38281 29.8174C8.41797 29.8174 9.31641 29.6562 10.0781 29.334C10.8496 29.0117 11.4453 28.5234 11.8652 27.8691C12.2852 27.2148 12.4951 26.3848 12.4951 25.3789C12.4951 24.0508 12.0801 23.0254 11.25 22.3027C10.4199 21.5801 9.11621 21.2188 7.33887 21.2188C6.74316 21.2188 6.09863 21.2725 5.40527 21.3799C4.71191 21.4775 4.14062 21.5801 3.69141 21.6875L2.31445 20.8525L3.13477 10.584H14.0332V13.2061H5.68359L5.18555 19.1094C5.54688 19.0312 5.99609 18.9531 6.5332 18.875C7.07031 18.7969 7.70508 18.7578 8.4375 18.7578ZM29.4824 17.7227L24.1699 32H22.5684L27.8906 17.7227H29.4824ZM40.4004 23.2695C41.3704 23.2695 42.2135 23.4355 42.9297 23.7676C43.6458 24.0931 44.1992 24.5684 44.5898 25.1934C44.987 25.8184 45.1855 26.5768 45.1855 27.4688C45.1855 28.4453 44.974 29.2884 44.5508 29.998C44.1276 30.7012 43.5189 31.2448 42.7246 31.6289C41.9303 32.0065 40.9798 32.1953 39.873 32.1953C39.1309 32.1953 38.4408 32.1302 37.8027 32C37.1647 31.8698 36.6276 31.6745 36.1914 31.4141V29.8711C36.6667 30.1576 37.2428 30.3854 37.9199 30.5547C38.597 30.724 39.2546 30.8086 39.8926 30.8086C40.6152 30.8086 41.2467 30.6947 41.7871 30.4668C42.334 30.2324 42.7572 29.8809 43.0566 29.4121C43.3626 28.9368 43.5156 28.3411 43.5156 27.625C43.5156 26.6745 43.2227 25.9421 42.6367 25.4277C42.0573 24.9069 41.1393 24.6465 39.8828 24.6465C39.4792 24.6465 39.0365 24.679 38.5547 24.7441C38.0729 24.8092 37.6758 24.8809 37.3633 24.959L36.543 24.4219L37.0898 17.7227H44.1895V19.207H38.4766L38.1152 23.5137C38.3626 23.4616 38.6816 23.4095 39.0723 23.3574C39.4629 23.2988 39.9056 23.2695 40.4004 23.2695Z" fill="#111111"/>
<path d="M14.0489 43.9271C14.3483 43.0057 15.6517 43.0057 15.9511 43.9271L18.1432 50.6738C18.2771 51.0858 18.661 51.3647 19.0943 51.3647H26.1882C27.1569 51.3647 27.5597 52.6044 26.7759 53.1738L21.0369 57.3435C20.6864 57.5981 20.5397 58.0495 20.6736 58.4615L22.8657 65.2082C23.1651 66.1295 22.1106 66.8956 21.3269 66.3262L15.5878 62.1565C15.2373 61.9019 14.7627 61.9019 14.4122 62.1565L8.67312 66.3262C7.88941 66.8956 6.83493 66.1295 7.13428 65.2082L9.32642 58.4615C9.46029 58.0495 9.31363 57.5981 8.96315 57.3435L3.22405 53.1738C2.44034 52.6044 2.84311 51.3647 3.81184 51.3647H10.9057C11.339 51.3647 11.7229 51.0858 11.8568 50.6738L14.0489 43.9271Z" fill="#111111"/>
<path d="M145.049 43.9271C145.348 43.0057 146.652 43.0057 146.951 43.9271L149.143 50.6738C149.277 51.0858 149.661 51.3647 150.094 51.3647H157.188C158.157 51.3647 158.56 52.6044 157.776 53.1738L152.037 57.3435C151.686 57.5981 151.54 58.0495 151.674 58.4615L153.866 65.2082C154.165 66.1295 153.111 66.8956 152.327 66.3262L146.588 62.1565C146.237 61.9019 145.763 61.9019 145.412 62.1565L139.673 66.3262C138.889 66.8956 137.835 66.1295 138.134 65.2082L140.326 58.4615C140.46 58.0495 140.314 57.5981 139.963 57.3435L134.224 53.1738C133.44 52.6044 133.843 51.3647 134.812 51.3647H141.906C142.339 51.3647 142.723 51.0858 142.857 50.6738L145.049 43.9271Z" fill="#111111"/>
<path d="M112.049 43.9271C112.348 43.0057 113.652 43.0057 113.951 43.9271L116.143 50.6738C116.277 51.0858 116.661 51.3647 117.094 51.3647H124.188C125.157 51.3647 125.56 52.6044 124.776 53.1738L119.037 57.3435C118.686 57.5981 118.54 58.0495 118.674 58.4615L120.866 65.2082C121.165 66.1295 120.111 66.8956 119.327 66.3262L113.588 62.1565C113.237 61.9019 112.763 61.9019 112.412 62.1565L106.673 66.3262C105.889 66.8956 104.835 66.1295 105.134 65.2082L107.326 58.4615C107.46 58.0495 107.314 57.5981 106.963 57.3435L101.224 53.1738C100.44 52.6044 100.843 51.3647 101.812 51.3647H108.906C109.339 51.3647 109.723 51.0858 109.857 50.6738L112.049 43.9271Z" fill="#111111"/>
<path d="M79.0489 43.9271C79.3483 43.0057 80.6517 43.0057 80.9511 43.9271L83.1432 50.6738C83.2771 51.0858 83.661 51.3647 84.0943 51.3647H91.1882C92.1569 51.3647 92.5597 52.6044 91.7759 53.1738L86.0369 57.3435C85.6864 57.5981 85.5397 58.0495 85.6736 58.4615L87.8657 65.2082C88.1651 66.1295 87.1106 66.8956 86.3269 66.3262L80.5878 62.1565C80.2373 61.9019 79.7627 61.9019 79.4122 62.1565L73.6731 66.3262C72.8894 66.8956 71.8349 66.1295 72.1343 65.2082L74.3264 58.4615C74.4603 58.0495 74.3136 57.5981 73.9631 57.3435L68.2241 53.1738C67.4403 52.6044 67.8431 51.3647 68.8118 51.3647H75.9057C76.339 51.3647 76.7229 51.0858 76.8568 50.6738L79.0489 43.9271Z" fill="#111111"/>
<path d="M47.0489 43.9271C47.3483 43.0057 48.6517 43.0057 48.9511 43.9271L51.1432 50.6738C51.2771 51.0858 51.661 51.3647 52.0943 51.3647H59.1882C60.1569 51.3647 60.5597 52.6044 59.7759 53.1738L54.0369 57.3435C53.6864 57.5981 53.5397 58.0495 53.6736 58.4615L55.8657 65.2082C56.1651 66.1295 55.1106 66.8956 54.3269 66.3262L48.5878 62.1565C48.2373 61.9019 47.7627 61.9019 47.4122 62.1565L41.6731 66.3262C40.8894 66.8956 39.8349 66.1295 40.1343 65.2082L42.3264 58.4615C42.4603 58.0495 42.3136 57.5981 41.9631 57.3435L36.2241 53.1738C35.4403 52.6044 35.8431 51.3647 36.8118 51.3647H43.9057C44.339 51.3647 44.7229 51.0858 44.8568 50.6738L47.0489 43.9271Z" fill="#111111"/>
</svg>
