<svg width="20" height="20" viewBox="0 0 20 20" fill="none" xmlns="http://www.w3.org/2000/svg">
<path d="M10 0.5C15.2469 0.5 19.5 4.75314 19.5 10C19.5 15.2469 15.2469 19.5 10 19.5C4.75314 19.5 0.5 15.2469 0.5 10C0.5 4.75314 4.75314 0.5 10 0.5ZM10.2852 4.75C7.31197 4.75043 4.75 7.01977 4.75 10C4.75 12.9805 7.31258 15.25 10.2861 15.25V15.249C11.035 15.2501 11.7768 15.1067 12.4707 14.8252H12.4717C12.6237 14.7632 12.7622 14.6712 12.8789 14.5557C12.9955 14.4402 13.0888 14.3026 13.1523 14.1514C13.2158 14.0002 13.2492 13.8378 13.25 13.6738C13.2508 13.5098 13.2192 13.3472 13.1572 13.1953C13.0952 13.0433 13.0032 12.9048 12.8877 12.7881C12.7722 12.6715 12.6347 12.5782 12.4834 12.5146C12.3322 12.4512 12.1698 12.4178 12.0059 12.417C11.8826 12.4164 11.7603 12.4347 11.6426 12.4697L11.5273 12.5098C11.1515 12.6627 10.7316 12.75 10.2861 12.75C8.52847 12.75 7.25 11.441 7.25 10C7.25 8.55897 8.52847 7.25 10.2861 7.25H10.2871C10.7125 7.24919 11.1342 7.33032 11.5283 7.49023V7.49121C11.8354 7.61627 12.1798 7.61406 12.4854 7.48535C12.7909 7.35661 13.0331 7.1118 13.1582 6.80469C13.2833 6.49757 13.2811 6.15325 13.1523 5.84766C13.0236 5.54206 12.7788 5.29988 12.4717 5.1748H12.4707C11.7765 4.89321 11.0343 4.74881 10.2852 4.75Z" fill="#F8FCFF" stroke="black"/>
</svg>
